<?xml version="1.0" encoding="utf-8"?><!-- Uploaded to: SVG Repo, www.svgrepo.com, Generator: SVG Repo Mixer Tools -->
<svg height="200px" width="200px" version="1.1" id="_x32_" xmlns="http://www.w3.org/2000/svg" xmlns:xlink="http://www.w3.org/1999/xlink" viewBox="0 0 512 512" xml:space="preserve" fill="#000000"><g id="SVGRepo_bgCarrier" stroke-width="0"></g><g id="SVGRepo_tracerCarrier" stroke-linecap="round" stroke-linejoin="round"></g><g id="SVGRepo_iconCarrier"> <style type="text/css"> .st0{fill:#000000;} </style> <g> <path class="st0" d="M399.88,154.743c3.885,28.154,3.346,49.893,3.493,66.816c0.27,29.424-28.509,33.778-34.301,1.231 c-4.008-22.5-9.662-51.039-18.432-80.887c-28.069-5.384-58.562-8.27-90.478-8.33c12.093,37.392,14.246,65.363,16.7,85.97 c3.438,28.864-25.023,36.162-34.346,4.808c-7.284-24.485-17.392-56.27-32.008-88.548c-32.201,3.008-62.309,8.947-89.117,17.47 c12.831,30.339,17.485,54.032,21.639,71.686c6.231,26.416-18.654,36.185-30.477,8.076c-7.654-18.215-17.662-40.916-30.356-64.34 C31.381,193.167-0.336,229.044,0.003,271.983c0.638,81.294,115.548,107.518,256.936,106.41 c141.38-1.115,255.698-29.138,255.059-110.425C511.605,217.575,467.22,177.596,399.88,154.743z"></path> </g> </g></svg>