<?xml version="1.0" standalone="no"?>
<!DOCTYPE svg PUBLIC "-//W3C//DTD SVG 20010904//EN"
 "http://www.w3.org/TR/2001/REC-SVG-20010904/DTD/svg10.dtd">
<svg version="1.0" xmlns="http://www.w3.org/2000/svg"
 width="96.000000pt" height="96.000000pt" viewBox="0 0 96.000000 96.000000"
 preserveAspectRatio="xMidYMid meet">
<metadata>
Created by potrace 1.14, written by Peter Selinger 2001-2017
</metadata>
<g transform="translate(0.000000,96.000000) scale(0.100000,-0.100000)"
fill="#000000" stroke="none">
<path d="M110 820 l-25 -22 -3 -239 c-3 -278 -2 -282 73 -205 l44 46 190 0
c104 0 197 3 206 6 36 14 45 57 45 222 0 224 23 206 -272 210 -226 3 -235 2
-258 -18z"/>
<path d="M718 533 c-3 -103 -5 -112 -32 -147 -43 -57 -75 -66 -231 -66 l-135
0 0 -34 c0 -19 9 -44 19 -57 19 -24 23 -24 221 -27 l202 -3 44 -45 c76 -76 75
-78 72 201 -3 284 -1 276 -97 283 l-59 4 -4 -109z"/>
</g>
</svg>
